<?xml version="1.0" encoding="utf-8"?>
<!-- Generator: Adobe Illustrator 17.1.0, SVG Export Plug-In . SVG Version: 6.00 Build 0)  -->
<!DOCTYPE svg PUBLIC "-//W3C//DTD SVG 1.1//EN" "http://www.w3.org/Graphics/SVG/1.1/DTD/svg11.dtd">
<svg version="1.1" xmlns="http://www.w3.org/2000/svg" xmlns:xlink="http://www.w3.org/1999/xlink" x="0px" y="0px"
	 viewBox="0 0 878.7 566.9" enable-background="new 0 0 878.7 566.9" xml:space="preserve">
<g id="Слой_1" display="none">
	<path display="inline" fill="#000103" d="M26.6,383.1"/>
	<g display="inline">
		<g>
			<path fill="#000308" d="M418.2,199.2c6.1,0-3.2-15.1,2.2-29.9c5-13.7,12-17.5,14.6-20.2c4.8-5,5.5-14.8-1.1-20.3
				c-6.6-5.5-15.3-3-21,2.6c-6.7,6.5-10.8,21.2-10.6,33.4C402.6,189.6,415,199.2,418.2,199.2z"/>
			<path fill="#000308" d="M210.5,275.9c34.2-38.1,62-82.6,70.8-126.9c24.2-121.4-179-89.5-111.4,124.4c0.1,0.4,0.3,0.9,0.4,1.3
				c-54,46.9-119.5,79.4-150.5,70.2C8.6,341.5,4,339,4,350.6c0,14.9,11.6,30.6,44.4,30.6c29.9,0,83.6-30.2,132.2-75
				c16,48.8,31.4,95.8,30.7,134c-1.3,76.3-60,116.1-97.8,106.9c-29.3-7.1-50.7-40.7-38.7-85.9c23.7-89.2,111.7-86.6,99.2-19
				c-4.6,24.5-24.1,41.2-42.7,34.1c-14.4-5.5-11.9-20.2-16.3-21.5c-6.6-1.9-5.5,28.3,15,33.8c15.9,4.3,30.3-2.2,38.4-9
				c32.5-27.3,33.4-87.9-14.4-100.5c-32.6-8.5-90.8,6.6-108.3,68.8C30.2,503.2,65.1,549,104.4,560c43.1,12,110.1-4.6,136.2-75.1
				c22-59.4-0.5-129.2-16-169.2C220.4,304.9,215.3,291.2,210.5,275.9z M248.3,94.9c23.5,6.5,41,57.4-46.5,149.5
				c-5-20.9-8.5-43.3-8.6-65.3C192.8,110.2,227.1,89.1,248.3,94.9z"/>
			<path fill="#000308" d="M828.4,324.5c-5.3-0.1-7.4,21.9-27.7,18.3c-5.1-0.9-8.8-3.5-11.4-8.3c-3.8,1.2-9.7,2.9-13.6,3.6
				c3.9,8.5,11.5,12.9,19.5,14.4C828.3,359.1,835.8,324.7,828.4,324.5z"/>
			<path fill="#000308" d="M836.6,242.5c-34.4-6.6-56.8,23.2-63.6,52.6c-7.7,2.5-16.6,7.4-26.1,15.6c11.3-84.1,61.1-201.6-2.6-204.5
				c-22.2-1-36.3,17.9-43.9,32.7C710.8,99.1,723.9,54,740.7,5c0.7-2.1-0.6-4.5-3.9-4c-8.4,1.3-25.5,3.9-29,14.6
				c-25.6,77.4-43.4,141-55.6,189.9c-15.8,43.9-43.9,107.1-74,104.4c-27.8-2.5,1.6-148.8,40.4-149.3c14.8-0.2,6.8,24.8,1.6,36.3
				c-3,6.7-0.1,11.6,7.6,4.2c16.5-15.7,24.6-67.9-13-60.2c-40.2,8.3-72.2,81.8-77.1,137.7c-15.6,28-34.9,57.9-46.2,57.9
				c-14.8,0,2.2-73.6,22.1-138.7c33-10.4,41.1-17.7,41.1-25c0-9.7-12.6-3.3-34.7,4.7c9.7-29.8,19.3-55.7,25.7-68.8
				c1.4-2.9,0.7-6.4-3.7-5.8c-9.3,1.4-24.7,4.8-30,13.1c-3.3,5.1-14.6,34-26.5,71.8c-24.4,5.7-35.4,5.1-35.4,15
				c0,5.7,12.6,6.4,29.7,3.5c-7.9,26.7-15.7,56.3-21.1,84.5c-15.3,31-43.4,83.9-57,83.9c-18.6,0,26.5-155.1,28.9-160.6
				c1.3-2.9,0.4-6.4-4-5.6c-9.2,1.8-25.7,4.9-28.6,14.4c-4.3,14.3-15.5,51-24.7,88.8c-12.7,24.7-51.6,98.1-67.5,98.1
				c-14.9,0,5.9-86,27.6-154.3c32.2-10.2,40.2-17.4,40.2-24.8c0-9.5-12.1-3.5-33.5,4.3c4.3-12.6,8.4-24.1,12.2-33.6
				c3.5-8.9,6.7-16.4,9.4-21.8c1.4-2.9,0.7-6.4-3.7-5.8c-9.3,1.4-24.7,4.8-30,13.1c-1.2,1.9-3.5,6.9-6.7,14.4
				c-4.5,10.7-10.2,26.2-16.4,44.4c-24.8,5.8-35.9,5.2-35.9,15.1c0,5.7,12.7,6.4,29.8,3.5c-16.1,51-32.4,116-32.4,161.7
				c0,17.2,8.8,27.4,15.5,27.4c25.1,0,64.2-63.8,81.6-96.1c-2.5,14.7-4.1,28-3.9,38.5c0.2,17.2,9.2,24.6,15.8,24.3
				c28-1.2,60.1-55.4,77.2-89.2c-0.9,9-1.4,17.5-1.4,25.4c0,19,8.8,24.5,15.5,24.5c24.5,0,52.7-41.4,71-74.5
				c2.5,21.5,11.3,36.3,28.4,36.3c27.4,0,53.3-38.7,71.6-74.9c-3.9,18.3-6.4,32.2-7.9,41.5c-0.8,4.8,2.4,6.7,5.1,6.4
				c12.1-1.3,29.5-9,31.5-18.9c3.2-15.6,8.8-49,19-95.3l-0.1,0.5c0,0,17.4-80.7,48.5-73.2c25.5,6.2-15.8,110.6-23.5,178.2
				c-0.9,7.9-1.2,15.2-0.9,22.1C294.1,495.8,312.2,489,286.6,498.7c-5.4,2.1-4.2,5.3,1.1,3.4c4.9-1.8,384.1-141,447.1-164.2l9.3-3.2
				c72,6.4,73.3-39.2,43.7-41.6c5.7-22.4,20.8-43,43.2-37.9c45.7,10.4,14.8,156.4-55.6,141.3c-24.7-5.3-30.9-28.6-30.6-57.2
				l-33,12.2c7.5,33.7,31.2,51.5,58.7,56.6c81.1,15,103.5-61.4,106.4-87.2C880.2,289.9,876,250.1,836.6,242.5z M745.4,325.2
				c0,0,13.8-9.6,25.5-15.4c-0.2,4.7,0,9.3,0.7,13.5C759.4,324.8,745.4,325.2,745.4,325.2z M785.7,320.3c-0.6-4.6-0.6-9.6,0-14.9
				C796.2,305.5,797.7,315.5,785.7,320.3z"/>
		</g>
	</g>
</g>
<g id="Layer_2">
	<g>
		<g>
			<path fill="#FFFFFF" d="M411.2,198.2c6.1,0-3.2-15.1,2.2-29.9c5-13.7,12-17.5,14.6-20.2c4.8-5,5.5-14.8-1.1-20.3
				c-6.6-5.5-15.3-3-21,2.6c-6.7,6.5-10.8,21.2-10.6,33.4C395.6,188.6,408,198.2,411.2,198.2z"/>
			<path fill="#FFFFFF" d="M203.5,274.9c34.2-38.1,62-82.6,70.8-126.9c24.2-121.4-179-89.5-111.4,124.4c0.1,0.4,0.3,0.9,0.4,1.3
				c-54,46.9-119.5,79.4-150.5,70.2C1.6,340.5-3,338-3,349.6c0,14.9,11.6,30.6,44.4,30.6c29.9,0,83.6-30.2,132.2-75
				c16,48.8,31.4,95.8,30.7,134c-1.3,76.3-60,116.1-97.8,106.9c-29.3-7.1-50.7-40.7-38.7-85.9c23.7-89.2,111.7-86.6,99.2-19
				c-4.6,24.5-24.1,41.2-42.7,34.1c-14.4-5.5-11.9-20.2-16.3-21.5c-6.6-1.9-5.5,28.3,15,33.8c15.9,4.3,30.3-2.2,38.4-9
				c32.5-27.3,33.4-87.9-14.4-100.5c-32.6-8.5-90.8,6.6-108.3,68.8C23.2,502.2,58.1,548,97.4,559c43.1,12,110.1-4.6,136.2-75.1
				c22-59.4-0.5-129.2-16-169.2C213.4,303.9,208.3,290.2,203.5,274.9z M241.3,93.9c23.5,6.5,41,57.4-46.5,149.5
				c-5-20.9-8.5-43.3-8.6-65.3C185.8,109.2,220.1,88.1,241.3,93.9z"/>
			<path fill="#FFFFFF" d="M821.4,323.5c-5.3-0.1-7.4,21.9-27.7,18.3c-5.1-0.9-8.8-3.5-11.4-8.3c-3.8,1.2-9.7,2.9-13.6,3.6
				c3.9,8.5,11.5,12.9,19.5,14.4C821.3,358.1,828.8,323.7,821.4,323.5z"/>
			<path fill="#FFFFFF" d="M829.6,241.5c-34.4-6.6-56.8,23.2-63.6,52.6c-7.7,2.5-16.6,7.4-26.1,15.6c11.3-84.1,61.1-201.6-2.6-204.5
				c-22.2-1-36.3,17.9-43.9,32.7C703.8,98.1,716.9,53,733.7,4c0.7-2.1-0.6-4.5-3.9-4c-8.4,1.3-25.5,3.9-29,14.6
				c-25.6,77.4-43.4,141-55.6,189.9c-15.8,43.9-43.9,107.1-74,104.4c-27.8-2.5,1.6-148.8,40.4-149.3c14.8-0.2,6.8,24.8,1.6,36.3
				c-3,6.7-0.1,11.6,7.6,4.2c16.5-15.7,24.6-67.9-13-60.2c-40.2,8.3-72.2,81.8-77.1,137.7c-15.6,28-34.9,57.9-46.2,57.9
				c-14.8,0,2.2-73.6,22.1-138.7c33-10.4,41.1-17.7,41.1-25c0-9.7-12.6-3.3-34.7,4.7c9.7-29.8,19.3-55.7,25.7-68.8
				c1.4-2.9,0.7-6.4-3.7-5.8c-9.3,1.4-24.7,4.8-30,13.1c-3.3,5.1-14.6,34-26.5,71.8c-24.4,5.7-35.4,5.1-35.4,15
				c0,5.7,12.6,6.4,29.7,3.5c-7.9,26.7-15.7,56.3-21.1,84.5c-15.3,31-43.4,83.9-57,83.9c-18.6,0,26.5-155.1,28.9-160.6
				c1.3-2.9,0.4-6.4-4-5.6c-9.2,1.8-25.7,4.9-28.6,14.4c-4.3,14.3-15.5,51-24.7,88.8c-12.7,24.7-51.6,98.1-67.5,98.1
				c-14.9,0,5.9-86,27.6-154.3c32.2-10.2,40.2-17.4,40.2-24.8c0-9.5-12.1-3.5-33.5,4.3c4.3-12.6,8.4-24.1,12.2-33.6
				c3.5-8.9,6.7-16.4,9.4-21.8c1.4-2.9,0.7-6.4-3.7-5.8c-9.3,1.4-24.7,4.8-30,13.1c-1.2,1.9-3.5,6.9-6.7,14.4
				c-4.5,10.7-10.2,26.2-16.4,44.4c-24.8,5.8-35.9,5.2-35.9,15.1c0,5.7,12.7,6.4,29.8,3.5c-16.1,51-32.4,116-32.4,161.7
				c0,17.2,8.8,27.4,15.5,27.4c25.1,0,64.2-63.8,81.6-96.1c-2.5,14.7-4.1,28-3.9,38.5c0.2,17.2,9.2,24.6,15.8,24.3
				c28-1.2,60.1-55.4,77.2-89.2c-0.9,9-1.4,17.5-1.4,25.4c0,19,8.8,24.5,15.5,24.5c24.5,0,52.7-41.4,71-74.5
				c2.5,21.5,11.3,36.3,28.4,36.3c27.4,0,53.3-38.7,71.6-74.9c-3.9,18.3-6.4,32.2-7.9,41.5c-0.8,4.8,2.4,6.7,5.1,6.4
				c12.1-1.3,29.5-9,31.5-18.9c3.2-15.6,8.8-49,19-95.3l-0.1,0.5c0,0,17.4-80.7,48.5-73.2c25.5,6.2-15.8,110.6-23.5,178.2
				c-0.9,7.9-1.2,15.2-0.9,22.1C287.1,494.8,305.2,488,279.6,497.7c-5.4,2.1-4.2,5.3,1.1,3.4c4.9-1.8,384.1-141,447.1-164.2l9.3-3.2
				c72,6.4,73.3-39.2,43.7-41.6c5.7-22.4,20.8-43,43.2-37.9c45.7,10.4,14.8,156.4-55.6,141.3c-24.7-5.3-30.9-28.6-30.6-57.2
				l-33,12.2c7.5,33.7,31.2,51.5,58.7,56.6c81.1,15,103.5-61.4,106.4-87.2C873.2,288.9,869,249.1,829.6,241.5z M738.4,324.2
				c0,0,13.8-9.6,25.5-15.4c-0.2,4.7,0,9.3,0.7,13.5C752.4,323.8,738.4,324.2,738.4,324.2z M778.7,319.3c-0.6-4.6-0.6-9.6,0-14.9
				C789.2,304.5,790.7,314.5,778.7,319.3z"/>
		</g>
	</g>
</g>
</svg>
